<?xml version="1.0" encoding="utf-8"?>
<!-- Generator: Adobe Illustrator 19.0.0, SVG Export Plug-In . SVG Version: 6.00 Build 0)  -->
<svg version="1.1" id="Layer_1" xmlns="http://www.w3.org/2000/svg" xmlns:xlink="http://www.w3.org/1999/xlink" x="0px" y="0px"
	 viewBox="189 -86.7 989.2 964.7" style="enable-background:new 189 -86.7 989.2 964.7;" xml:space="preserve">
<style type="text/css">
	.st0{fill:#2F2C4B;stroke:#2F2C4B;stroke-miterlimit:10;}
	.st1{fill:#FFFFFF;}
	.st2{fill:#2F2C4B;}
</style>
<g>
	<polygon class="st0" points="245.4,466 189.8,369.7 245.4,273.4 356.5,273.4 412.1,369.7 356.5,466 	"/>
	<path class="st1" d="M242.5,347.8c0,0.8,0.6,1.4,1.4,1.4h15.7c0.8,0,1.4-0.6,1.4-1.4v-4.3c0-0.8-0.6-1.4-1.4-1.4h-15.7
		c-0.8,0-1.4,0.6-1.4,1.4V347.8z"/>
	<path class="st1" d="M240,367c0,0.8,0.6,1.4,1.4,1.4h15.7c0.8,0,1.4-0.6,1.4-1.4v-4.3c0-0.8-0.6-1.4-1.4-1.4h-15.7
		c-0.8,0-1.4,0.6-1.4,1.4V367z"/>
	<path class="st1" d="M238.4,386.2c0,0.8,0.6,1.4,1.4,1.4h15.7c0.8,0,1.4-0.6,1.4-1.4V382c0-0.8-0.6-1.4-1.4-1.4h-15.7
		c-0.8,0-1.4,0.6-1.4,1.4V386.2z"/>
	<path class="st1" d="M236.8,405.5c0,0.8,0.6,1.4,1.4,1.4h15.7c0.8,0,1.4-0.6,1.4-1.4v-4.3c0-0.8-0.6-1.4-1.4-1.4h-15.7
		c-0.8,0-1.4,0.6-1.4,1.4L236.8,405.5L236.8,405.5z"/>
	<path class="st1" d="M359.4,347.8c0,0.8-0.6,1.4-1.4,1.4h-15.7c-0.8,0-1.4-0.6-1.4-1.4v-4.3c0-0.8,0.6-1.4,1.4-1.4H358
		c0.8,0,1.4,0.6,1.4,1.4V347.8z"/>
	<path class="st1" d="M361.9,367c0,0.8-0.6,1.4-1.4,1.4h-15.7c-0.8,0-1.4-0.6-1.4-1.4v-4.3c0-0.8,0.6-1.4,1.4-1.4h15.7
		c0.8,0,1.4,0.6,1.4,1.4V367z"/>
	<path class="st1" d="M363.5,386.2c0,0.8-0.6,1.4-1.4,1.4h-15.7c-0.8,0-1.4-0.6-1.4-1.4V382c0-0.8,0.6-1.4,1.4-1.4h15.7
		c0.8,0,1.4,0.6,1.4,1.4V386.2z"/>
	<path class="st1" d="M365.1,405.5c0,0.8-0.6,1.4-1.4,1.4H348c-0.8,0-1.4-0.6-1.4-1.4v-4.3c0-0.8,0.6-1.4,1.4-1.4h15.7
		c0.8,0,1.4,0.6,1.4,1.4V405.5z"/>
	<path class="st1" d="M258.9,413.3l8.1-73.2c0.8-6.6,6.6-7,7.9-6.9h73.6c1.3,0,7,0.4,7.8,6.9l8.1,73.2h7.2l-8.2-74
		c-1.2-10.7-10.4-13.3-14.9-13.3l-73.4,0c-4.7-0.1-13.8,2.5-15,13.3l-8.2,74H258.9z"/>
	<path class="st1" d="M237.5,413.3l8.1-73.2c0.8-6.6,6.6-7,7.9-6.9h73.6c1.3,0,7,0.4,7.8,6.9l8.1,73.2h7.2l-8.2-74
		c-1.2-10.7-10.4-13.3-14.9-13.3l-73.4,0c-4.7-0.1-13.8,2.5-15,13.3l-8.2,74H237.5z"/>
</g>
<g>
	<path class="st2" d="M575.4,335.8c0,52-59.4,52-59.4,52h-29.6v74.5h-29.9V358.2h28.3l-28.3-44.6v-29.9h59.4
		C515.9,283.7,575.4,283.7,575.4,335.8z M545.8,335.8c0-22.2-29.9-22.2-29.9-22.2h-24l27.8,44.4
		C527.7,356.9,545.8,353.1,545.8,335.8z"/>
	<path class="st2" d="M605.5,462.3V279.9h91.3v36.5H642v36.5h48v36.5h-48v36.5h57.9v36.5L605.5,462.3L605.5,462.3z"/>
	<path class="st2" d="M770.6,462.3h-36.5V276.1h9.7l92.1,107.2V280.1h36.7v186h-9.7L770.6,363V462.3z"/>
	<path class="st2" d="M943.8,462.3V316.4h-45.4v-36.2h127.3v36.2h-45.4v145.9H943.8z"/>
	<path class="st2" d="M1097.6,273.2h3.8l76.8,189h-41.1l-7.4-19.6h-60.5l-7.1,19.6h-41.3L1097.6,273.2z M1116.3,408.5l-16.6-47.5
		l-17.1,47.5H1116.3z"/>
</g>
</svg>
