<?xml version="1.0" encoding="utf-8"?>
<!-- Generator: Adobe Illustrator 16.0.0, SVG Export Plug-In . SVG Version: 6.00 Build 0)  -->
<!DOCTYPE svg PUBLIC "-//W3C//DTD SVG 1.1//EN" "http://www.w3.org/Graphics/SVG/1.1/DTD/svg11.dtd">
<svg version="1.1" id="Layer_1" xmlns="http://www.w3.org/2000/svg" xmlns:xlink="http://www.w3.org/1999/xlink" x="0px" y="0px"
	 width="1651.55px" height="182.292px" viewBox="0 0 1651.55 182.292" enable-background="new 0 0 1651.55 182.292"
	 xml:space="preserve">
<polygon fill="#3938BD" points="1042.381,0 952.347,0 905.874,0 849.486,0 815.84,0 760.243,0 712.979,0 657.383,0 623.736,0 
	520.876,0 451.662,181.688 554.522,181.688 554.522,181.689 689.587,181.689 689.588,181.688 746.627,181.688 746.626,181.689 
	881.69,181.689 881.691,181.688 971.725,181.688 "/>
<polygon fill="#3938BD" points="436.762,181.688 425.707,181.688 494.921,0 507.419,0 "/>
<polygon fill="#3938BD" points="409.365,181.689 398.31,181.689 467.523,0 480.021,0 "/>
<g>
	<polygon fill="#FA4115" points="368.709,181.688 233.645,181.688 302.858,0 439.365,0 	"/>
	<polygon fill="#FA4115" points="218.744,181.688 207.689,181.688 276.903,0 289.401,0 	"/>
	<polygon fill="#FA4115" points="191.348,181.689 180.292,181.689 249.506,0 262.004,0 	"/>
</g>
<path fill="#3938BD" d="M1.488,127.758h29.02c-1.102,8.939-1.313,17.229,0.901,20.369c3.556,5.102,8.913,8.863,20.808,8.904
	c9.89,0.033,15.658-2.217,20.649-5.66c4.991-3.441,7.829-7.004,8.652-11.896c0.712-4.24,0.345-8.684-2.771-11.633
	c-2.178-2.16-7.647-4.883-18.229-9.748c-10.584-4.865-18.225-8.922-22.928-12.168c-4.704-3.246-7.637-6.346-9.777-11.508
	c-2.142-5.164-2.252-11.715-1.09-18.631c2.029-12.068,8.093-20.91,18.385-28.838C55.4,39.02,68.259,33.334,85.235,33.39
	c17.24,0.058,27.805,4.673,35.937,12.597c8.127,7.926,5.773,21.975,4.506,35.088l-27.217-0.18
	c0.416-6.854,2.047-13.936-1.682-17.604c-3.731-3.668-8.816-5.26-17.304-5.287c-8.353-0.027-13.571,0.637-17.627,3.494
	c-4.058,2.859-5.813,5.998-6.548,10.367c-0.69,4.109,0.375,7.508,3.202,10.191c2.812,2.752,10.066,4.029,20.493,8.828
	c15.71,7.168,21.803,12.244,25.715,16.654c6.369,7.182,6.768,16.529,5.047,26.77c-2.127,12.656-7.824,21.199-18.265,31.361
	c-10.587,10.305-25.309,16.08-43.618,16.02c-12.628-0.043-18.72-1.451-27.278-5.625c-8.56-4.172-16.175-11-18.745-18.385
	C-0.722,150.295-0.391,137.346,1.488,127.758z"/>
<path fill="#3938BD" d="M142.975,179.559l-30.272-0.102l54.884-143.344l59.742,0.199c10.625,0.035,15.556,0.485,21.326,2.951
	c5.77,2.467,9.985,6.529,12.646,12.182c2.659,5.656,3.332,12.398,2.017,20.227c-1.217,7.24-3.839,14.279-7.863,21.119
	s-8.472,12.307-13.338,16.402c-4.868,4.098-11.091,8.219-15.501,10.453c-4.978,2.523-12.035,4.664-20.374,5.744
	c-4.855,0.641-10.154,0.674-23.186,0.631l-19.347-0.066L142.975,179.559z M172.905,101.139l9.322,0.031
	c15.97,0.053,25.555,0.832,31.23-1.109c5.676-1.938,10.895-5.789,13.82-10.721c2.879-4.855,4.822-10.389,5.285-15.594
	c0.481-5.408-3.097-9.313-5.768-10.336c-2.671-1.018-9.757-2.387-19.58-2.42l-18.768-0.072L172.905,101.139z"/>
<path fill="#3938BD" d="M271.283,179.98l-30.272-0.102l54.884-143.343l59.742,0.199c10.626,0.035,15.555,0.484,21.325,2.95
	c5.771,2.469,9.987,6.529,12.648,12.182c2.659,5.656,3.332,12.398,2.017,20.227c-1.217,7.24-3.839,14.279-7.863,21.119
	c-4.024,6.842-8.472,12.309-13.338,16.402c-4.87,4.098-11.093,8.221-15.501,10.455c-4.979,2.521-12.037,4.662-20.374,5.744
	c-4.855,0.639-10.155,0.672-23.187,0.629l-19.346-0.064L271.283,179.98z M301.214,101.561l9.322,0.031
	c15.969,0.053,25.554,0.832,31.23-1.107c5.675-1.939,10.894-5.791,13.819-10.723c2.879-4.855,4.822-10.387,5.287-15.594
	c0.479-5.408-3.099-9.313-5.769-10.334c-2.673-1.02-9.759-2.389-19.582-2.422l-18.768-0.072L301.214,101.561z"/>
<path fill="#FA4115" d="M514.889,36.535h47.871c10.797,0,18.672,0.912,23.623,2.735c6.647,2.476,11.44,6.872,14.398,13.188
	c2.956,6.317,4.06,14.052,3.305,23.201c-0.747,9.151-3.746,20.435-8.996,33.85c-4.614,11.789-9.925,21.948-15.913,30.48
	c-7.329,10.421-15.258,18.854-23.801,25.303c-6.462,4.884-14.087,8.693-22.883,11.429c-6.572,2.02-14.698,3.028-24.371,3.028
	h-49.297L514.889,36.535z M531.6,60.763l-37.13,94.858h19.556c7.312,0,12.773-0.455,16.372-1.367
	c4.708-1.173,9.015-3.158,12.909-5.96c3.901-2.799,7.995-7.407,12.276-13.824c4.28-6.414,8.583-15.157,12.917-26.229
	c4.337-11.07,6.774-19.569,7.326-25.497c0.552-5.927-0.112-10.552-2.003-13.873c-1.888-3.321-5.049-5.567-9.489-6.74
	c-3.302-0.911-10.282-1.367-20.968-1.367H531.6z"/>
<path fill="#FA4115" d="M706.801,179.75h-28.499l1.409-32.53h-51.856l-23.441,32.53h-27.796L683.216,36.535h27.699L706.801,179.75z
	 M680.756,123.089l2.922-53.144l-38.329,53.144H680.756z"/>
<path fill="#FA4115" d="M841.68,179.75l56.064-143.215h26.186l-22.063,56.368h51.331l22.066-56.368h26.198L945.398,179.75h-26.191
	l24.515-62.62H892.39l-24.511,62.62H841.68z"/>
<path fill="#FA4115" d="M1028.629,36.535h51.865c10.262,0,17.733,0.473,22.415,1.417c4.671,0.944,8.408,2.915,11.217,5.91
	c2.819,2.996,4.577,6.984,5.281,11.967c0.697,4.981-0.159,10.566-2.578,16.754c-2.626,6.709-6.676,12.864-12.137,18.465
	c-5.474,5.601-11.556,9.802-18.257,12.601c6.915,2.54,11.292,6.873,13.15,12.993c1.846,6.123,1.151,13.32-2.081,21.59
	c-2.552,6.515-6.399,12.847-11.55,19.002c-5.158,6.153-10.827,11.072-17.014,14.75c-6.201,3.681-12.938,5.944-20.232,6.79
	c-4.563,0.522-15.229,0.848-31.975,0.977h-44.16L1028.629,36.535z M1023.204,117.325l-14.993,38.296h24.251
	c9.44,0,15.55-0.293,18.306-0.88c4.204-0.781,8.115-2.686,11.754-5.714c3.634-3.029,6.454-7.083,8.438-12.163
	c1.677-4.299,2.165-7.945,1.445-10.941c-0.712-2.995-2.589-5.178-5.623-6.545c-3.034-1.369-10.515-2.053-22.426-2.053H1023.204z
	 M1045.493,60.371l-12.954,33.118h17.165c10.203,0,16.616-0.162,19.215-0.488c4.714-0.586,8.908-2.296,12.592-5.129
	c3.67-2.833,6.411-6.561,8.226-11.187c1.734-4.429,2.038-8.026,0.9-10.795c-1.125-2.767-3.757-4.444-7.897-5.03
	c-2.464-0.326-9.865-0.489-22.196-0.489H1045.493z"/>
<path fill="#FA4115" d="M1125.749,109.021c5.714-14.587,12.479-26.83,20.309-36.731c5.808-7.294,12.399-13.839,19.764-19.636
	c7.373-5.796,14.648-10.095,21.829-12.896c9.561-3.776,19.614-5.666,30.175-5.666c19.12,0,31.854,6.546,38.2,19.636
	c6.36,13.091,4.966,31.295-4.158,54.609c-9.053,23.12-21.825,41.212-38.322,54.268c-16.498,13.059-34.279,19.587-53.334,19.587
	c-19.29,0-32.093-6.496-38.39-19.489C1115.52,149.711,1116.832,131.817,1125.749,109.021z M1153.125,108.045
	c-6.344,16.217-7.762,28.51-4.253,36.88c3.51,8.368,10.48,12.553,20.925,12.553c10.443,0,20.64-4.152,30.585-12.456
	c9.952-8.305,18.17-20.76,24.668-37.367c6.429-16.412,7.957-28.655,4.603-36.732c-3.356-8.074-10.436-12.113-21.229-12.113
	c-10.796,0-21.106,4.087-30.903,12.26C1167.706,79.243,1159.58,91.569,1153.125,108.045z"/>
<path fill="#FA4115" d="M1361.357,179.75h-28.494l1.406-32.53h-51.865l-23.441,32.53h-27.795l106.598-143.215h27.699
	L1361.357,179.75z M1335.307,123.089l2.921-53.144l-38.326,53.144H1335.307z"/>
<path fill="#FA4115" d="M1375.34,179.75l56.064-143.215h55.133c13.861,0,23.438,1.287,28.713,3.859
	c5.275,2.572,8.511,7.147,9.716,13.725c1.195,6.579,0.144,14.101-3.168,22.566c-4.207,10.747-10.545,19.621-19.008,26.621
	c-8.463,7.002-18.744,11.415-30.847,13.237c4.237,3.648,7.344,7.653,9.328,12.017c1.977,4.363,3.912,12.113,5.811,23.251
	l4.899,27.938h-31.329l-6.74-31.162c-2.366-11.139-4.219-18.155-5.565-21.054c-1.339-2.897-3.187-4.885-5.546-5.959
	c-2.351-1.074-6.526-1.612-12.556-1.612h-5.299l-23.407,59.787H1375.34z M1433.889,97.104h19.383
	c12.563,0,20.644-0.586,24.227-1.759c3.589-1.172,6.822-3.189,9.721-6.056c2.888-2.866,5.177-6.448,6.854-10.746
	c1.887-4.819,2.251-8.711,1.08-11.675c-1.174-2.963-3.729-4.836-7.675-5.617c-1.992-0.325-8.299-0.488-18.924-0.488h-20.438
	L1433.889,97.104z"/>
<path fill="#FA4115" d="M1562.119,36.535h47.873c10.799,0,18.671,0.912,23.622,2.735c6.646,2.476,11.44,6.872,14.397,13.188
	c2.957,6.317,4.062,14.052,3.309,23.201c-0.751,9.151-3.749,20.435-9,33.85c-4.615,11.789-9.924,21.948-15.913,30.48
	c-7.329,10.421-15.259,18.854-23.8,25.303c-6.461,4.884-14.087,8.693-22.879,11.429c-6.577,2.02-14.7,3.028-24.373,3.028h-49.3
	L1562.119,36.535z M1578.831,60.763l-37.131,94.858h19.556c7.312,0,12.772-0.455,16.377-1.367c4.705-1.173,9.011-3.158,12.907-5.96
	c3.899-2.799,7.993-7.407,12.273-13.824c4.281-6.414,8.586-15.157,12.92-26.229c4.339-11.07,6.776-19.569,7.323-25.497
	c0.553-5.927-0.112-10.552-2-13.873c-1.89-3.321-5.051-5.567-9.489-6.74c-3.303-0.911-10.285-1.367-20.967-1.367H1578.831z"/>
<path fill="#FA4115" d="M732.231,128.36h29.02c-1.102,8.939-1.313,17.229,0.902,20.369c3.557,5.102,8.912,8.863,20.807,8.904
	c9.891,0.033,15.658-2.217,20.65-5.66c4.99-3.441,7.828-7.004,8.65-11.896c0.713-4.24,0.346-8.684-2.771-11.633
	c-2.178-2.16-7.646-4.883-18.229-9.748c-10.584-4.865-18.225-8.922-22.928-12.168s-7.637-6.346-9.777-11.508
	c-2.141-5.164-2.252-11.715-1.09-18.631c2.029-12.068,8.094-20.91,18.387-28.838c10.291-7.93,23.15-13.615,40.127-13.56
	c17.24,0.058,27.805,4.673,35.936,12.597c8.127,7.926,5.773,21.975,4.506,35.088l-27.217-0.18
	c0.416-6.854,2.047-13.936-1.682-17.604c-3.732-3.668-8.816-5.26-17.305-5.287c-8.352-0.027-13.57,0.637-17.627,3.494
	c-4.057,2.859-5.813,5.998-6.547,10.367c-0.691,4.109,0.375,7.508,3.201,10.191c2.811,2.752,10.066,4.029,20.492,8.828
	c15.711,7.168,21.803,12.244,25.715,16.654c6.369,7.182,6.77,16.529,5.047,26.77c-2.127,12.656-7.822,21.199-18.264,31.361
	c-10.588,10.305-25.311,16.08-43.619,16.02c-12.629-0.043-18.721-1.451-27.277-5.625c-8.561-4.172-16.176-11-18.746-18.385
	S730.353,137.948,732.231,128.36z"/>
</svg>
