<?xml version="1.0" encoding="utf-8"?>
<!-- Generator: Adobe Illustrator 16.0.0, SVG Export Plug-In . SVG Version: 6.00 Build 0)  -->
<!DOCTYPE svg PUBLIC "-//W3C//DTD SVG 1.1//EN" "http://www.w3.org/Graphics/SVG/1.1/DTD/svg11.dtd">
<svg version="1.1" id="Capa_1" xmlns="http://www.w3.org/2000/svg" xmlns:xlink="http://www.w3.org/1999/xlink" x="0px" y="0px"
	 width="36px" height="36px" viewBox="0 0 36 36" enable-background="new 0 0 36 36" xml:space="preserve">
<rect fill="#FFFFFF" width="36" height="36"/>
<g>
	<g id="Layer_5_56_">
		<g>
			<path fill="#2F2C4B" d="M27.34,14.044c0,0-0.826,0-1.098,0c-0.124,0-0.108-0.183-0.108-0.183v-0.55
				c0-0.723-0.587-1.309-1.309-1.309h-8.962c-0.06,0-0.134-0.121-0.263-0.375c-0.021-0.037-0.042-0.077-0.061-0.112
				c-0.457-0.866-1.051-1.05-1.467-1.05H11.74c-0.588,0-0.942,0.343-1.356,1.019c-0.027,0.045-0.053,0.088-0.08,0.135
				c-0.132,0.225-0.235,0.384-0.312,0.384H9.31C8.588,12.003,8,12.59,8,13.314v10.893c0,0.641,0.461,1.174,1.071,1.287
				c0.073,0.023,0.153,0.04,0.239,0.04h15.984c0.433,0,0.851-0.349,0.927-0.772l1.768-9.938
				C28.063,14.392,27.771,14.044,27.34,14.044z M9.31,13.049h0.683c0.681,0,1-0.542,1.214-0.899c0.022-0.04,0.047-0.08,0.071-0.119
				c0.212-0.344,0.376-0.518,0.577-0.518h2.218c0.069,0,0.283,0,0.539,0.488c0.019,0.034,0.038,0.069,0.054,0.104
				c0.193,0.376,0.486,0.944,1.196,0.944h8.963c0.142,0,0.262,0.119,0.262,0.262v0.524c0,0,0.017,0.208-0.104,0.208
				c-3.406,0-13.63,0-13.63,0c-0.431,0-0.848,0.347-0.922,0.773l-1.315,7.392c0,0-0.068,0.247-0.068-0.21c0-2.174,0-8.687,0-8.687
				C9.049,13.168,9.17,13.049,9.31,13.049z"/>
		</g>
	</g>
</g>
</svg>
