<?xml version="1.0" encoding="utf-8"?>
<!-- Generator: Adobe Illustrator 16.0.0, SVG Export Plug-In . SVG Version: 6.00 Build 0)  -->
<!DOCTYPE svg PUBLIC "-//W3C//DTD SVG 1.1//EN" "http://www.w3.org/Graphics/SVG/1.1/DTD/svg11.dtd">
<svg version="1.1" id="Capa_1" xmlns="http://www.w3.org/2000/svg" xmlns:xlink="http://www.w3.org/1999/xlink" x="0px" y="0px"
	 width="36px" height="36px" viewBox="0 0 36 36" enable-background="new 0 0 36 36" xml:space="preserve">
<g>
	<rect fill="#FFFFFF" width="36" height="36"/>
	<g>
		<path fill="#2F2C4B" d="M21.9,8H11.834c-0.675,0-1.226,0.549-1.226,1.227v17.544c0,0.678,0.551,1.229,1.226,1.229h12.33
			c0.677,0,1.227-0.552,1.227-1.229V11.792L21.9,8z M22.189,9.834l1.529,1.664h-1.529V9.834z M24.359,26.771
			c0,0.106-0.088,0.197-0.194,0.197h-12.33c-0.106,0-0.195-0.091-0.195-0.197V9.227c0-0.109,0.089-0.198,0.195-0.198h9.324v2.984
			c0,0.284,0.231,0.513,0.516,0.513h2.688L24.359,26.771L24.359,26.771z M13.457,13.479h8.744c0.214,0,0.386,0.173,0.386,0.385
			c0,0.211-0.172,0.385-0.386,0.385h-8.744c-0.214,0-0.389-0.174-0.389-0.385C13.068,13.651,13.243,13.479,13.457,13.479z
			 M22.586,16.456c0,0.214-0.175,0.386-0.389,0.386h-8.744c-0.214,0-0.386-0.172-0.386-0.386c0-0.213,0.172-0.385,0.386-0.385h8.744
			C22.415,16.071,22.586,16.243,22.586,16.456z M22.586,18.964c0,0.213-0.175,0.388-0.389,0.388h-8.744
			c-0.214,0-0.386-0.175-0.386-0.388c0-0.214,0.172-0.387,0.386-0.387h8.744C22.415,18.578,22.586,18.75,22.586,18.964z
			 M22.586,21.516c0,0.211-0.175,0.387-0.389,0.387h-8.744c-0.214,0-0.386-0.176-0.386-0.387c0-0.214,0.172-0.388,0.386-0.388h8.744
			C22.415,21.128,22.586,21.302,22.586,21.516z"/>
	</g>
</g>
</svg>
