<?xml version="1.0" encoding="utf-8"?>
<!-- Generator: Adobe Illustrator 16.0.0, SVG Export Plug-In . SVG Version: 6.00 Build 0)  -->
<!DOCTYPE svg PUBLIC "-//W3C//DTD SVG 1.1//EN" "http://www.w3.org/Graphics/SVG/1.1/DTD/svg11.dtd">
<svg version="1.1" id="Layer_1" xmlns="http://www.w3.org/2000/svg" xmlns:xlink="http://www.w3.org/1999/xlink" x="0px" y="0px"
	 width="989.248px" height="964.68px" viewBox="0 0 989.248 964.68" enable-background="new 0 0 989.248 964.68"
	 xml:space="preserve">
<polygon fill="#FFFFFF" fill-opacity="0.3" points="343.08,524.965 191.536,262.482 343.08,0 646.169,0 797.712,262.482 
	646.169,524.965 "/>
<path fill="#FFFFFF" d="M335.208,202.707c0,2.135,1.752,3.885,3.887,3.885h42.758c2.137,0,3.885-1.75,3.885-3.885v-11.663
	c0-2.136-1.748-3.885-3.885-3.885h-42.758c-2.135,0-3.887,1.749-3.887,3.885V202.707z"/>
<path fill="#FFFFFF" d="M328.409,255.178c0,2.138,1.748,3.886,3.885,3.886h42.758c2.135,0,3.885-1.748,3.885-3.886v-11.662
	c0-2.137-1.75-3.887-3.885-3.887h-42.758c-2.137,0-3.885,1.75-3.885,3.887V255.178z"/>
<path fill="#FFFFFF" d="M324.034,307.647c0,2.137,1.75,3.888,3.889,3.888h42.756c2.135,0,3.887-1.751,3.887-3.888V295.99
	c0-2.14-1.752-3.888-3.887-3.888h-42.756c-2.139,0-3.889,1.748-3.889,3.888V307.647z"/>
<path fill="#FFFFFF" d="M319.661,360.12c0,2.14,1.75,3.889,3.889,3.889h42.756c2.135,0,3.887-1.749,3.887-3.889v-11.657
	c0-2.137-1.752-3.887-3.887-3.887H323.55c-2.139,0-3.889,1.75-3.889,3.887V360.12z"/>
<path fill="#FFFFFF" d="M654.038,202.707c0,2.135-1.75,3.885-3.885,3.885h-42.758c-2.137,0-3.887-1.75-3.887-3.885v-11.663
	c0-2.136,1.75-3.885,3.887-3.885h42.758c2.135,0,3.885,1.749,3.885,3.885V202.707z"/>
<path fill="#FFFFFF" d="M660.841,255.178c0,2.138-1.75,3.886-3.887,3.886h-42.756c-2.137,0-3.887-1.748-3.887-3.886v-11.662
	c0-2.137,1.75-3.887,3.887-3.887h42.756c2.137,0,3.887,1.75,3.887,3.887V255.178z"/>
<path fill="#FFFFFF" d="M665.214,307.647c0,2.137-1.75,3.888-3.889,3.888h-42.754c-2.139,0-3.889-1.751-3.889-3.888V295.99
	c0-2.14,1.75-3.888,3.889-3.888h42.754c2.139,0,3.889,1.748,3.889,3.888V307.647z"/>
<path fill="#FFFFFF" d="M669.585,360.12c0,2.14-1.748,3.889-3.885,3.889h-42.758c-2.135,0-3.885-1.749-3.885-3.889v-11.657
	c0-2.137,1.75-3.887,3.885-3.887H665.7c2.137,0,3.885,1.75,3.885,3.887V360.12z"/>
<path fill="#FFFFFF" d="M380.028,381.5l22.148-199.668c2.082-18.125,18.037-19.083,21.443-18.921h200.57
	c3.43,0,19.123,0.992,21.18,18.883L667.524,381.5h19.555l-22.396-201.885c-3.363-29.261-28.227-36.341-40.75-36.138l-200.088,0.001
	c-12.727-0.38-37.611,6.875-40.98,36.173L360.476,381.5H380.028z"/>
<path fill="#FFFFFF" d="M321.726,381.5l22.15-199.668c2.08-18.125,18.035-19.083,21.439-18.921h200.572
	c3.432,0,19.123,0.992,21.18,18.883L609.22,381.5h19.555l-22.396-201.885c-3.363-29.261-28.225-36.341-40.748-36.138l-200.09,0.001
	c-12.725-0.38-37.611,6.875-40.977,36.173L302.169,381.5H321.726z"/>
<g>
	<path fill="#FFFFFF" d="M162.952,785.992c0,71.335-81.476,71.335-81.476,71.335H40.913v102.107H0v-142.67h38.814L0,755.57v-40.913
		h81.476C81.476,714.657,162.952,714.657,162.952,785.992z M122.389,785.992c0-30.422-40.913-30.422-40.913-30.422h-32.87
		l38.116,60.844C97.562,815.016,122.389,809.771,122.389,785.992z"/>
	<path fill="#FFFFFF" d="M204.211,959.435V709.412h125.186v50.004h-75.182v50.005h65.74v50.005h-65.74v50.004h79.378v50.005H204.211
		z"/>
	<path fill="#FFFFFF" d="M430.455,959.435H380.45V704.167h13.288l126.235,146.866V709.762h50.354V964.68H557.04L430.455,823.408
		V959.435z"/>
	<path fill="#FFFFFF" d="M667.887,959.435V759.416h-62.243v-49.654h174.491v49.654h-62.243v200.019H667.887z"/>
	<path fill="#FFFFFF" d="M878.749,700.32h5.245l105.254,259.114h-56.299l-10.141-26.926h-82.875l-9.791,26.926h-56.648
		L878.749,700.32z M904.275,885.651l-22.729-65.041l-23.429,65.041H904.275z"/>
</g>
</svg>
